<svg width="197" height="176" viewBox="0 0 197 176" fill="none" xmlns="http://www.w3.org/2000/svg">
<path d="M170.562 1.93347L171.148 2.8634L171.091 3.71071L172.359 5.49397L173.393 5.47787L174.862 4.27895L175.482 4.98016L174.51 7.03445L172.706 7.29539L171.146 8.87012L169.656 9.27815L170.406 9.86551L171.128 11.4261L170.299 12.6402L170.745 13.3968L172.458 12.5122L174.518 10.3672L176.383 10.2393L178.253 9.23886L177.253 11.2841L177.466 11.9722L178.12 11.8372L178.51 13.9197L180.154 16.4475L179.526 17.8106L177.156 18.6096L177.602 19.8055L176.221 21.0256L175.653 20.8543L175.771 21.5777L174.682 21.6603L174.076 22.295L175.068 23.4164L172.781 25.1744L173.955 25.8243L175.024 25.6298L175.62 26.8167L176.112 26.6625L176.854 25.0344L177.94 25.0566L179.393 23.9886L181.172 23.9241L182.982 24.975L183.469 26.1124L185.099 26.2484L186.07 25.8293L186.641 26.8046L188.12 27.4907L190.13 26.2162L191.833 27.8997L194.097 28.4428L196.578 30.2472L195.804 30.3429L195.117 31.1398L195.289 32.1735L194.635 33.183L196.011 33.3463L196.086 34.0868L196.883 34.4434L196.107 35.3451L196.336 37.477L194.916 37.6402L194.654 36.6801L193.562 37.1647L190.339 39.9202L190.211 40.9508L188.791 40.9699L187.737 42.8006L186.985 42.9053L186.049 44.0096L186.888 46.1575L186.347 47.7514L191.787 55.4446L191.258 56.2456L190.466 55.8114L189.69 56.0965L187.872 54.7394L185.589 54.1067L185.333 53.5012L185.891 53.0851L185.787 52.3516L185.299 52.2438L184.055 50.3094L182.175 49.6888L181.893 50.0475L180.081 49.9568L178.193 51.737L177.114 51.3008L172.164 51.9526L168.023 54.0482L165.924 57.4193L164.688 58.185L163.239 58.186L161.623 61.3153L160.422 60.7813L159.128 62.8739L157.479 62.6391L155.304 65.7211L152.659 66.7548L151.3 66.0435L150.852 64.8919L151.453 63.6698L150.83 63.4109L150.693 62.1807L150.188 61.8483L151.221 61.2367L150.419 57.6561L151.523 57.9553L153.623 56.2002L155.909 55.4718L155.95 53.6382L157.132 52.3355L158.679 53.2583L163.205 51.7904L164.339 51.732L165.039 52.4675L165.3 51.7874L167.645 49.9921L166.794 48.3942L166.591 48.6632L166.211 48.1685L165.518 48.2128L165.021 49.0903L164.929 48.1917L164.484 48.8284L164.107 48.5171L164.948 46.7227L164.776 45.6094L163.908 45.2931L163.58 44.4317L162.804 43.9481L163.104 43.3426L162.622 42.7895L162.998 42.4167L162.198 41.3971L162.818 41.1382L162.664 40.7543L163.557 39.5443L165.737 37.6935L166.787 35.7642L163.615 35.5536L159.028 36.0191L157.127 37.8235L154.372 38.7675L152.951 38.0764L146.981 40.3624L143.412 41.1986L142.964 42.0509L142.042 42.1799L141.216 42.9275L139.823 42.9124L139.68 43.3285L135.016 45.5037L134.414 44.4297L133.086 45.0533L131.63 44.4015L131.171 44.6604L130.672 43.534L129.812 44.2463L130.761 45.5107L130.815 46.3348L128.684 47.3877L126.667 50.0938L124.482 51.7189L121.169 55.4366L121.739 55.8567L121.938 56.9015L120.628 57.2007L118.606 59.3487L114.703 60.1144L111.742 59.5331L104.864 60.6252L102.737 59.5099L102.714 59.0293L101.789 58.4873L97.3195 57.7609L96.9035 58.2314L97.0365 58.9628L95.7765 59.5653L93.1465 59.532L91.8935 60.4035L90.9165 60.1849L89.3115 60.9637L85.7835 61.1662L85.6885 58.4862L84.2325 57.1412L84.0145 54.8431L84.9845 53.3973L84.3545 52.3818L85.6535 52.3234L86.0505 51.8882L84.7565 50.9522L84.6655 49.2304L83.9175 47.3484L82.2565 47.8008L80.6575 47.293L77.6645 47.57L77.0375 46.8043L76.1445 47.2305L74.4565 45.0936L74.6525 44.3057L74.2675 43.7113L75.6495 41.9925L75.9815 40.5891L75.7415 39.7438L75.1275 39.2693L74.4295 39.4002L73.9785 38.4461L76.4485 38.3816L77.4455 39.4486L79.8455 39.5181L80.6065 41.259L81.8245 41.7769L83.1875 40.4752L84.6855 40.7331L87.9295 38.3645L89.0525 38.3897L90.1405 40.2797L91.4765 39.8818L92.0425 39.24L93.0485 39.6863L94.0205 38.7796L95.2635 39.2652L96.1915 37.9242L97.5345 37.3882L99.0055 35.2675L97.4035 33.5235L97.9065 32.0253L100.265 30.2058L100.826 30.9251L102.266 30.1494L103.716 28.7872L104.466 29.5257L105.166 28.756L104.953 27.8009L109.042 27.0735L109.305 25.4766L108.283 24.5396L110.235 22.9921L110.849 21.5252L110.737 20.7293L111.318 20.5197L111.511 19.758L113.787 18.9007L114.385 19.4367L114.74 18.7113L115.635 19.3117L117.44 19.3389L119.773 18.5843L120.687 19.081L122.128 18.1501L123.846 19.0024L125.422 16.5199L125.084 15.9749L125.286 14.9442L128.641 12.226L129.888 9.12291L131.416 7.58446L132.864 7.47766L133.185 6.57393L134.419 5.69339L137.07 5.64299L138.542 2.76355L140.278 3.82948L141.666 5.34979L142.097 7.18849L143.643 6.71597L146.804 8.00557L146.274 6.98698L148.385 7.68921L148.875 8.35013L151.575 8.50427L151.904 9.7576L154.911 10.3228L155.836 10.2543L156.437 9.4342L156.716 7.77284L157.773 8.05293L157.581 6.00166L158.589 5.90596L158.859 4.8511L159.682 5.14026L162.604 2.57617L162.998 3.05878L164.765 1.7319L166.362 1.94348L168.945 0L170.562 1.93347Z" fill="black"/>
<path d="M38.7941 93.1411L39.0001 94.4327L38.4791 94.7259L38.7941 93.1411ZM85.6371 61.5833L89.1641 61.3798L90.7691 60.601L91.7461 60.8196L92.9991 59.9481L95.6292 59.9824L96.8901 59.3799L96.7571 58.6485L97.1721 58.178L101.642 58.9044L102.568 59.4464L102.591 59.927L104.717 61.0423L111.596 59.9502L114.556 60.5315L118.458 59.7658L120.481 57.6178L121.791 57.3186L121.592 56.2738L121.023 55.8537L124.336 52.136L126.522 50.5119L128.538 47.8058L130.67 46.752L130.616 45.9278L129.667 44.6634L130.527 43.9511L131.025 45.0775L131.485 44.8186L132.94 45.4704L134.269 44.8468L134.871 45.9208L139.534 43.7456L139.679 43.3285L141.072 43.3446L141.897 42.597L142.819 42.4681L143.268 41.6167L146.835 40.7795L152.807 38.4935L154.227 39.1846L156.982 38.2406L158.882 36.4362L163.47 35.9707L166.643 36.1813L165.593 38.1106L163.412 39.9614L162.519 41.1724L162.671 41.5553L162.052 41.8142L162.853 42.8338L162.476 43.2066L162.957 43.7597L162.657 44.3662L163.433 44.8488L163.761 45.7102L164.628 46.0265L164.802 47.1398L163.959 48.9332L164.336 49.2445L164.781 48.6077L164.873 49.5064L165.371 48.6289L166.063 48.5846L166.443 49.0793L166.647 48.8103L167.497 50.4082L165.153 52.2035L164.892 52.8846L164.191 52.1491L163.057 52.2075L158.531 53.6765L156.984 52.7536L155.802 54.0563L155.761 55.8899L153.476 56.6183L151.374 58.3734L150.27 58.0742L148.481 59.8645L146.625 60.8418L145.878 61.01L144.674 60.2131L143.796 60.6755L142.037 63.6476L139.617 65.3735L138.397 65.7019L137.891 65.2173L137.274 66.3508L136.654 65.8843L135.04 66.8495L134.926 67.6565L133.783 68.1522L133.606 70.0765L132.594 70.6316L131.869 71.7026L131.395 71.2845L131.309 69.3299L131.036 69.4539L129.148 71.759L128.918 74.4823L127.505 74.8994L125.345 78.481L125.058 80.8315L124.299 82.3559L124.813 84.4011L123.483 85.1476L122.789 86.1209L121.943 85.731L120.969 86.8564L120.635 86.1118L121.023 84.6338L120.493 83.32L120.05 84.0122L118.706 84.6409L119.079 86.0584L116.311 88.1046L114.775 90.5317L113.26 91.115L111.255 93.0837L112.598 95.005L113.979 95.6891L114.321 96.9615L113.77 97.7897L114.233 98.5997L112.448 100.07L111.34 103.548L110.688 104.656L109.925 104.616L109.52 105.331L109.804 106.891L109.334 107.181L109.612 107.643L109.106 108.603L108.438 109.085L108.442 110.13L107.512 110.626L106.878 109.932L106.608 110.165L106.554 111.732L105.898 112.461L106.502 113.269L105.889 115.095L106.55 115.388L105.589 115.589L105.831 115.905L105.059 117.383L105.13 119.361L104.32 119.544L102.964 119.722L102.458 119.322L102.325 119.747L101.439 119.631L100.729 120.132L99.3951 116.835L97.8341 120.661L96.4431 121.171L96.1771 122.996L94.9021 123.168L94.5021 124.742L93.5461 125.092L93.4421 125.571L92.5151 125.318L92.2171 123.001L89.5851 123.033L87.8311 123.089L89.0801 120.096L88.2131 118.229L88.2112 117.221L88.6281 113.693L89.6191 111.859L88.4101 108.101L89.6221 107.619L91.5701 109.239L92.4251 109.188L92.7781 108.607L93.6711 108.682L93.9421 107.98L93.6191 106.825L93.1871 107.1L92.8391 106.846L93.2921 106.761L93.0172 106.32L92.3451 106.403L92.2911 105.032L93.0732 104.909L93.5131 103.266L94.7411 103.462L94.3581 102.526L96.3881 103.043L97.3351 101.668L100.214 100.687L99.3821 99.9921L99.9581 99.1609L99.7952 98.0627L99.2961 97.9992L98.8041 96.9312L98.4081 97.0773L97.4791 96.0991L97.1931 96.2562L97.0711 95.6759L96.1261 96.1122L95.8971 94.8316L95.2542 94.9293L96.8711 93.3032L97.0551 92.0298L95.9901 92.8388L95.3611 92.7683L95.0491 91.5693L93.8781 91.3155L93.1191 89.9301L92.4221 89.7317L92.4431 88.7897L91.4361 88.2748L90.3581 88.9348L88.1691 89.1443L86.7401 90.176L86.5811 86.8956L87.1411 85.5566L88.0961 84.6972L86.8021 84.5864L86.6491 83.8167L89.6001 80.6813L88.4241 81.0682L87.1081 80.6723L86.1631 81.4571L84.4821 81.7624L83.1891 81.571L81.7461 82.5402L80.6581 81.311L80.7761 80.2471L79.5931 79.7564L77.7501 81.1468L77.5191 83.601L76.4541 84.7365L75.2361 83.9315L75.7981 83.3502L75.6761 82.0072L74.4971 81.7573L72.9441 84.3799L73.5661 84.3114L72.3811 85.5345L73.0721 85.6221L73.5311 85.1042L73.4411 85.4951L71.7451 86.2376L71.2112 85.9182L69.4251 86.289L68.2121 88.4299L67.1292 88.977L66.4612 88.834L66.2081 87.7448L66.5551 85.8175L63.7672 86.7182L63.4871 86.5197L64.0871 85.9666L63.4711 86.0553L62.4591 86.6739L63.0551 85.1405L61.7621 85.1606L61.2441 83.7521L60.6821 83.8549L60.7491 84.5511L59.9931 83.6544L59.0251 83.9708L58.4621 83.6453L57.7961 84.6689L57.0111 84.5078L57.1552 83.5255L55.8711 83.6776L54.5891 84.8886L54.2061 84.5763L54.6771 83.9889L53.7021 83.467L52.2391 84.949L52.6971 83.5073L51.5011 82.1724L50.4821 82.7839L49.8091 82.1976L49.1491 82.2873L48.2981 83.1265L45.3291 83.8247L43.9921 83.4328L41.6071 85.3591L41.9671 85.6654L41.6821 86.1017L40.3481 86.6225L40.5711 87.7882L40.1161 88.4844L39.2611 88.707L41.8711 91.798L38.7901 93.1461L39.1061 91.1552L38.0471 89.1161L38.2341 87.9333L37.6261 86.7989L39.2141 83.9245L38.4001 83.7794L38.1911 83.3713L38.9011 83.0872L38.1511 82.2863L38.1552 82.9734L37.8031 82.8827L37.4071 81.6112L36.8601 81.6686L37.3941 81.185L37.2701 80.519L36.4651 79.9841L36.7071 79.5539L36.2931 78.896L35.6201 78.6522L35.9421 78.4426L35.1191 78.1132L35.8971 77.5701L35.1691 77.4543L35.8281 76.9636L35.3271 76.2231L35.7542 76.4921L36.0111 76.1959L35.6001 75.3859L36.4541 75.7687L36.2841 75.0161L36.9191 74.7955L36.9431 74.2716L38.5191 73.5411L38.3001 73.1129L37.8911 73.26L38.7981 71.775L38.4221 71.1211L38.6171 69.0084L38.9421 68.8593L38.5131 67.9405L38.9171 67.3279L38.5111 66.0534L38.6241 65.2736L40.6211 65.598L44.5621 64.8525L45.4551 64.4837L45.3571 63.5639L46.0021 62.5302L47.8161 62.6591L48.9371 61.5328L50.0811 61.3968L53.2261 63.7684L56.4151 64.5543L63.5681 64.2752L64.4612 63.3281L67.9301 63.6757L69.4791 64.2711L70.9871 62.9574L72.7551 64.0334L75.4971 63.2919L76.8261 63.6727L79.2261 62.5685L80.3951 61.1106L81.2211 61.0612L83.0701 62.4224L84.3251 62.6742L85.2341 62.3579L85.6371 61.5833Z" fill="black"/>
<path d="M38.7943 93.141L41.8753 91.794L39.2643 88.7029L40.1203 88.4803L40.5753 87.7841L40.3523 86.6184L41.6863 86.0976L41.9713 85.6613L41.6113 85.355L43.9963 83.4287L45.3333 83.8206L48.3013 83.1234L49.1523 82.2842L49.8123 82.1945L50.4853 82.7809L51.5043 82.1693L52.7003 83.5042L52.2423 84.946L53.7053 83.4629L54.6793 83.9848L54.2093 84.5722L54.5913 84.8835L55.8743 83.6725L57.1583 83.5214L57.0143 84.5037L57.7993 84.6649L58.4653 83.6413L59.0293 83.9667L59.9973 83.6513L60.7533 84.548L60.6853 83.8508L61.2473 83.748L61.7643 85.1575L63.0573 85.1373L62.4623 86.6707L63.4733 86.0511L64.0903 85.9624L63.4903 86.5156L63.7703 86.7141L66.5583 85.8133L66.2123 87.7407L66.4653 88.8288L67.1323 88.9718L68.2153 88.4248L69.4283 86.2838L71.2153 85.9131L71.7493 86.2325L73.4453 85.4899L73.5353 85.099L73.0763 85.6169L72.3843 85.5282L73.5693 84.3051L72.9473 84.3736L74.5003 81.7521L75.6783 82.0019L75.8003 83.3449L75.2393 83.9262L76.4573 84.7322L77.5223 83.5968L77.7543 81.1425L79.5963 79.7522L80.7793 80.2428L80.6613 81.3068L81.7493 82.5359L83.1923 81.5667L84.4853 81.7591L86.1663 81.4539L87.1113 80.669L88.4273 81.0649L89.6033 80.6771L86.6523 83.8134L86.8053 84.5831L88.0993 84.6939L87.1443 85.5533L86.5853 86.8913L86.7443 90.1727L88.1733 89.14L90.3623 88.9305L91.4403 88.2696L92.4473 88.7854L92.4253 89.7264L93.1233 89.9259L93.8823 91.3112L95.0523 91.5651L95.3643 92.764L95.9933 92.8355L97.0583 92.0265L96.8753 93.299L95.2573 94.925L95.9003 94.8274L96.1303 96.1079L97.0753 95.6716L97.1973 96.252L97.4833 96.0948L98.4123 97.0731L98.8083 96.927L99.3003 97.9949L99.7993 98.0584L99.9633 99.1566L99.3863 99.9878L100.218 100.684L97.3403 101.663L96.3923 103.039L94.3623 102.522L94.7453 103.459L93.5173 103.262L93.0773 104.905L92.2953 105.027L90.6473 104.557L90.6613 103.953L88.2683 103.519L84.7863 101.365L78.8133 101.868L78.2063 101.6L78.0203 102.263L77.2533 102.087L75.9383 102.923L75.1233 102.389L75.3703 101.69L72.3703 102.665L71.2343 101.825L69.6123 101.775L68.1773 101.032L64.1733 101.19L59.6613 102.149L57.9543 101.504L56.9883 102.188L56.0153 101.788L52.3293 101.71L50.9823 102.418L48.6613 101.282L43.9233 100.508L40.9103 98.7425L38.0433 98.9128L38.3183 98.5753L37.7793 96.8323L38.4793 94.7256L39.0003 94.4334L38.7943 93.141Z" fill="black"/>
<path d="M114.235 98.5977L114.293 99.2999L115.006 99.3795L114.886 100.109L115.924 99.9609L117.04 101.085L118.815 97.3837H119.343L121.247 94.9687L121.144 94.1919L120.343 94.1717L120.445 93.2338L122.984 92.5789L124.518 92.8539L125.465 92.5114L125.553 91.9351L127.046 92.7814L127.174 93.4091L128.15 93.6186L128.598 92.8852L129.326 92.9507L129.744 94.1637L131.249 93.8977L131.809 94.2977L134.045 93.1783L134.249 92.0137L135.169 91.3417L135.825 91.4495L137.241 89.5725L137.715 89.7206L137.305 90.8047L137.706 90.8249L136.88 92.1739L136.915 93.8736L138.497 94.9667L139.531 95.1047L139.351 96.1163L138.46 96.7873L137.5 100.767L140.855 102.603L140.783 105.181L139.965 106.268L140.298 107.096L138.598 109.41L138.034 112.189L136.78 112.318L136.372 114.259L134.99 115.571L134.239 117.466L133.691 117.593L133.702 119.13L132.894 119.624L133.271 120.091L132.078 121.023L132.112 122.092L130.745 124.961L130.381 127.798L129.348 130.242L128.821 130.304L128.626 132.192L127.813 132.421L127.257 131.256L124.279 129.956L123.299 129.798L121.393 130.424L120.158 128.596L117.304 128.487L116.946 129.513L116.11 129.052L115.095 130.026L114.127 129.412L113.008 126.995L111.719 126.571L111.304 126.743L111.375 127.587L110.345 127.63L109.656 128.268L109.893 127.43L109.505 126.854L108.998 126.884L108.849 127.665L107.868 127.551L107.409 126.791L106.425 127.779L105.976 126.449L105.436 126.731L103.818 126.176L104.779 123.988L104.484 122.368L105.22 120.92L104.763 120.841L104.822 119.836L104.323 119.542L105.132 119.359L105.061 117.382L105.834 115.905L105.591 115.587L106.552 115.386L105.891 115.093L106.505 113.268L105.901 112.46L106.557 111.731L106.611 110.164L106.881 109.931L107.514 110.625L108.444 110.129L108.44 109.084L109.108 108.603L109.614 107.643L109.336 107.18L109.805 106.89L109.521 105.33L109.926 104.615L110.689 104.654L111.341 103.546L112.45 100.068L114.235 98.5977Z" fill="black"/>
<path d="M89.5886 123.028L92.2196 122.997L92.5176 125.313L93.4446 125.567L93.5486 125.088L94.5056 124.738L94.9056 123.163L96.1806 122.992L96.4466 121.167L97.8376 120.657L99.3976 116.832L100.732 120.129L101.442 119.628L102.328 119.744L102.461 119.319L102.966 119.72L104.323 119.541L104.822 119.836L104.763 120.841L105.22 120.92L104.484 122.367L104.779 123.988L103.818 126.176L105.436 126.731L105.976 126.449L106.425 127.779L107.409 126.79L107.868 127.551L108.849 127.665L108.998 126.884L109.505 126.854L109.893 127.43L109.656 128.267L110.345 127.63L111.375 127.587L111.313 129.114L112.659 130.413L112.798 134.281L113.622 136.096L112.628 141.795L112.983 142.83L111.97 143.595L112.576 146.569L112.141 148.256L112.553 148.523L110.545 151.55L109.613 151.536L108.383 150.308L107.095 150.6L107.017 151.665L107.837 153.524L107.217 153.659L106.745 155.865L106.39 155.999L106.672 157.504L106.233 158.297L107.335 160.807L106.651 162.331L107.111 162.599L107.287 163.887L108.307 164.702L108.678 168.471L107.392 168.8L107.868 169.853L107.546 170.348L105.924 169.624L105.289 169.907L105.685 172.071L104.59 172.068L104.506 174.743L104.061 174.766L103.387 173.704L102.882 173.984L102.447 175.597L101.544 172.902L101.06 172.946L98.4066 170.927L98.0186 171.024L97.7046 173.975L96.1406 174.903L96.0426 173.077L95.3196 171.459L95.6796 171.22L96.1476 171.635L96.2286 170.466L94.5046 161.636L94.5096 159.506L94.0846 157.677L93.5236 157.367L92.9596 155.754L92.7476 154.106L92.4406 154.257L92.2006 153.501L91.2376 153.166L91.6196 150.357L91.0366 149.268L90.9376 146.265L91.9326 146.071L91.1836 144.317L91.3406 143.412L90.1446 140.869L89.6626 137.404L89.2706 137.295L89.5596 135.86L88.9996 135.037L88.8086 133.058L89.3816 133.017L89.1306 132.277L89.4906 131.763L90.0816 131.892L90.3106 130.838L89.8986 129.719L90.2666 129.052L89.9546 128.017L90.4296 125.441L89.5886 123.028Z" fill="black"/>
<path d="M150.273 58.073L151.076 61.6537L150.043 62.2652L150.548 62.5977L150.684 63.8278L151.307 64.0867L150.706 65.3089L151.155 66.4604L149.419 68.0281L149.415 68.9358L147.587 71.7316L148.403 72.4711L148.374 73.1442L149.022 73.4585L148.718 76.9485L149.164 77.5207L148.651 78.5796L148.704 79.9629L150.068 80.65L148.409 83.2685L146.949 84.0402L146.63 84.6478L146.504 85.5102L147.281 88.0591L144.874 90.2383L144.499 91.5854L143.856 92.0045L144.191 92.609L143.028 92.7591L142.256 94.2764L139.532 95.1046L138.498 94.9665L136.916 93.8734L136.881 92.1738L137.707 90.8247L137.306 90.8045L137.716 89.7205L137.242 89.5724L135.826 91.4493L135.17 91.3415L134.25 92.0135L134.046 93.1782L131.81 94.2975L131.25 93.8975L129.745 94.1635L129.327 92.9505L128.599 92.885L128.151 93.6184L127.175 93.4089L127.047 92.7812L125.554 91.9349L125.466 92.5112L124.519 92.8538L122.985 92.5787L120.446 93.2336L120.344 94.1716L121.145 94.1918L121.248 94.9685L119.344 97.3835H118.816L117.041 101.085L115.925 99.9607L114.887 100.109L115.007 99.3794L114.294 99.2998L114.236 98.5975L113.773 97.7875L114.324 96.9594L113.982 95.6869L112.601 95.0028L111.258 93.0815L113.263 91.1129L114.778 90.5295L116.314 88.1014L119.082 86.0552L118.709 84.6377L120.052 84.009L120.496 83.3178L121.026 84.6316L120.638 86.1096L120.972 86.8542L121.946 85.7298L122.792 86.1187L123.486 85.1454L124.816 84.3989L124.302 82.3537L125.061 80.8293L125.348 78.4788L127.508 74.8972L128.922 74.4791L129.152 71.7558L131.04 69.4517L131.313 69.3277L131.399 71.2823L131.873 71.6994L132.597 70.6284L133.609 70.0733L133.786 68.149L134.928 67.6543L135.043 66.8473L136.657 65.8821L137.277 66.3496L137.894 65.2161L138.4 65.7018L139.62 65.3733L142.04 63.6475L143.799 60.6743L144.676 60.2119L145.881 61.0088L146.628 60.8406L148.484 59.8633L150.273 58.073Z" fill="black"/>
<path d="M13.152 33.077L13.601 33.6725L15.367 33.6906L17.08 35.1585L17.15 37.0486L17.673 37.2511L18.185 38.726L17.527 39.7889L17.367 43.288L15.702 45.7493L16.587 49.5274L18.953 51.3903L18.467 52.6033L16.415 53.2491L16.144 54.7059L15.38 55.5925L14.811 55.8212L13.971 54.8379L13.386 55.2581L12.603 54.6586L11.346 54.6374L10.546 54.8862L10.738 55.5472L8.68701 57.1622L6.423 56.6141L6.01801 56.0549L4.51199 56.2635L3.74002 55.8756L2.505 56.331L1.44101 55.7507L1.21301 54.3513L0 53.9271L1.09201 51.1716L0.575012 50.3414L0.679016 49.5264L1.37399 49.0256L0.615021 47.3854L3.83002 40.4055L3.323 39.7012L3.914 39.2962L3.80801 38.9114L2.36502 38.2464L2.23801 36.5992L2.55499 36.2999L3.59302 36.7704L4.453 36.1942L4.75101 36.6556L6.871 35.6823L7.80402 35.9534L9.75702 34.3494L10.926 34.5086L11.251 33.4165L12.549 32.9681L12.452 32.3516L13.152 33.077Z" fill="black"/>
<path d="M87.2558 116.785L88.2148 117.217L88.2158 118.225L89.0838 120.092L87.8348 123.085L89.5888 123.029L90.4298 125.441L89.9548 128.017L90.2668 129.052L89.8988 129.719L90.3108 130.838L90.0818 131.893L89.4908 131.764L89.1308 132.277L89.3818 133.017L88.8088 133.058L88.9998 135.037L88.5588 135.14L88.0688 136.67L87.9358 135.804L87.2838 135.452L87.1538 134.72L86.7938 134.784L84.8578 136.96L83.8628 136.655L83.0358 135.012L82.5868 135.058L82.1718 136.109L82.8588 140.672L82.1618 140.976L82.1608 141.697L81.3588 141.609L80.1828 142.551L78.6658 145.341L79.9338 149.508L79.5088 150.091L78.7408 150.165L77.6018 151.939L77.0638 151.622L76.0968 151.865L75.1068 152.684L74.3308 152.313L72.8598 148.193L73.1408 147.532L72.3738 147.377L72.6188 146.844L72.0688 145.875L71.3148 145.868L70.5858 147.591L71.2788 150.333L70.3508 150.223L69.3608 148.088L69.4018 145.919L68.8598 145.056L69.1768 144.791L68.6688 144.361L69.2618 143.416L68.6558 143.596L67.7578 140.506L66.7758 139.864L67.0088 139.164L66.6208 139.172L65.9168 137.932L65.8208 136.366L66.6088 136.907L66.8418 135.978L65.7578 135.894L65.8028 134.789L66.5388 134.472L67.1468 134.774L67.8388 132.493L67.3128 131.494L67.6678 130.803L67.3698 130.452L68.2288 130.506L68.1358 129.649L68.3838 129.203L68.7178 129.44L68.8598 128.847L70.3618 129.346L70.7458 127.635L70.3588 126.299L73.8588 127.066L75.7188 126.457L76.2658 124.505L76.0118 123.889L76.4198 123.519L76.7838 124.924L77.7638 125.543L78.4008 125.52L78.0088 123.134L79.5178 124.014L80.1858 123.568L80.0658 124.271L81.0398 125.665L81.4928 125.545L82.1628 122.665L81.7138 121.096L82.4818 120.624L83.2828 121.429L82.8368 119.878L85.8748 119.989L86.2918 119.054L86.9958 118.905L86.5698 117.306L86.6418 116.754L87.2558 116.785Z" fill="black"/>
</svg>
